<svg width="28" height="8" viewBox="0 0 28 8" fill="none" xmlns="http://www.w3.org/2000/svg">
<path d="M1 4C1 2.34315 2.34315 1 4 1C5.65685 1 7 2.34315 7 4C7 5.65685 5.65685 7 4 7C2.34315 7 1 5.65685 1 4Z" stroke="black" stroke-width="2" stroke-linecap="round"/>
<path d="M11 4C11 2.34315 12.3431 1 14 1C15.6569 1 17 2.34315 17 4C17 5.65685 15.6569 7 14 7C12.3431 7 11 5.65685 11 4Z" stroke="black" stroke-width="2" stroke-linecap="round"/>
<path d="M21 4C21 2.34315 22.3431 1 24 1C25.6569 1 27 2.34315 27 4C27 5.65685 25.6569 7 24 7C22.3431 7 21 5.65685 21 4Z" stroke="black" stroke-width="2" stroke-linecap="round"/>
</svg>
