<svg width="18" height="28" viewBox="0 0 18 28" fill="none" xmlns="http://www.w3.org/2000/svg">
<path d="M1 8.38889C1 9.44444 2.14286 10.5 3.28571 10.5C4.42857 10.5 5.57143 9.44444 5.57143 8.38889C5.57143 7.33333 6.71429 5.22222 9 5.22222C11.2857 5.22222 12.4286 6.63999 12.4286 8.38889C12.4286 10.1378 10.7143 10.5 9 11.5556C7.28571 12.6111 6.71429 14.7222 6.71429 15.7778V18.9444C6.71429 19.4722 8.00201 20 9 20C9.99799 20 11.2857 19.4722 11.2857 18.9444V15.7778C11.2857 15.25 13.3753 13.4356 14.7143 12.6111C16.4286 11.5556 17 10.2324 17 8.38889C17 6.54538 16.4138 4.6808 14.7143 3.11111C13.0148 1.54142 11.4035 1 9 1C6.59653 1 4.98523 1.54142 3.28571 3.11111C1.5862 4.6808 1 7.33333 1 8.38889Z" stroke="black" stroke-width="2"/>
<path d="M6 25C6 23.8954 7.34315 23 9 23C10.6569 23 12 23.8954 12 25C12 26.1046 10.6569 27 9 27C7.34315 27 6 26.1046 6 25Z" stroke="black" stroke-width="2"/>
</svg>
