<svg width="28" height="28" viewBox="0 0 28 28" fill="none" xmlns="http://www.w3.org/2000/svg">
<path d="M18 10L10 18M14 1C12.3432 1 10.5 4 10.5 4C10.5 4 7.96601 2.72988 6.61539 3.78571C5.4222 4.71847 5.5 7.5 5.5 7.5C5.5 7.5 2.50339 8.26043 2 9.82143C1.44477 11.5432 4 14 4 14C4 14 1.61592 16.2226 2 17.8853C2.38399 19.5477 5.5 20.5 5.5 20.5C5.5 20.5 5.4222 23.2815 6.61539 24.2143C7.96601 25.2701 10.5 24 10.5 24C10.5 24 12.3432 27 14 27C15.6569 27 17.5 24 17.5 24C17.5 24 20.034 25.2701 21.3846 24.2143C22.5778 23.2815 22.5 20.5 22.5 20.5C22.5 20.5 25.616 19.5477 26 17.8853C26.3841 16.2226 24 14 24 14C24 14 26.5552 11.5432 26 9.82143C25.4966 8.26043 22.5 7.5 22.5 7.5C22.5 7.5 22.5778 4.71847 21.3846 3.78571C20.034 2.72988 17.5 4 17.5 4C17.5 4 15.6569 1 14 1ZM11 8C9.89543 8 9 8.89543 9 10C9 11.1046 9.89543 12 11 12C12.1046 12 13 11.1046 13 10C13 8.89543 12.1046 8 11 8ZM17 16C15.8954 16 15 16.8954 15 18C15 19.1046 15.8954 20 17 20C18.1046 20 19 19.1046 19 18C19 16.8954 18.1046 16 17 16Z" stroke="black" stroke-width="2" stroke-linecap="round" stroke-linejoin="round"/>
</svg>
