<svg width="28" height="28" viewBox="0 0 28 28" fill="none" xmlns="http://www.w3.org/2000/svg">
<path d="M14 1C12.7041 1 10.1125 10.0824 10.1125 10.0824C10.1125 10.0824 1.68956 10.0824 1.04164 11.3799C0.393725 12.6774 7.52081 17.2185 7.52081 17.2185C7.52081 17.2185 5.57707 26.3009 6.22498 26.9497C6.8729 27.5984 14 21.7597 14 21.7597C14 21.7597 21.1271 27.5984 21.775 26.9497C22.4229 26.3009 20.4792 17.2185 20.4792 17.2185C20.4792 17.2185 27.6063 12.6774 26.9584 11.3799C26.3104 10.0824 17.8875 10.0824 17.8875 10.0824C17.8875 10.0824 15.2958 1 14 1Z" stroke="black" stroke-width="2" stroke-linecap="round" stroke-linejoin="round"/>
</svg>
